{
  "accessors": [
    {
      "bufferView": 2,
      "componentType": 5126,
      "count": 65532,
      "max": [
        20.738643646240234,
        -0.1304830014705658,
        6.859302997589111
      ],
      "min": [
        -23.867332458496094,
        -30.77163314819336,
        -23.727901458740234
      ],
      "type": "VEC3"
    },
    {
      "bufferView": 2,
      "byteOffset": 786384,
      "componentType": 5126,
      "count": 65532,
      "max": [
        0.9999966621398926,
        0.9930137395858765,
        0.9999956488609314
      ],
      "min": [
        -0.9999956488609314,
        -0.9999997615814209,
        -0.9991781115531921
      ],
      "type": "VEC3"
    },
    {
      "bufferView": 1,
      "componentType": 5126,
      "count": 65532,
      "max": [
        0.9991340041160583,
        0.999809980392456
      ],
      "min": [
        0.00015999999595806003,
        0.00028300000121816993
      ],
      "type": "VEC2"
    },
    {
      "bufferView": 0,
      "componentType": 5125,
      "count": 294150,
      "type": "SCALAR"
    },
    {
      "bufferView": 2,
      "byteOffset": 1572768,
      "componentType": 5126,
      "count": 65532,
      "max": [
        19.900911331176758,
        -1.789870023727417,
        6.902455806732178
      ],
      "min": [
        -21.677780151367188,
        -31.166011810302734,
        -3.7856719493865967
      ],
      "type": "VEC3"
    },
    {
      "bufferView": 2,
      "byteOffset": 2359152,
      "componentType": 5126,
      "count": 65532,
      "max": [
        0.9996838569641113,
        0.9865902662277222,
        0.9999992251396179
      ],
      "min": [
        -0.9999871253967285,
        -0.9999833703041077,
        -0.9815943837165833
      ],
      "type": "VEC3"
    },
    {
      "bufferView": 1,
      "byteOffset": 524256,
      "componentType": 5126,
      "count": 65532,
      "max": [
        0.9995759725570679,
        0.9998379945755005
      ],
      "min": [
        0.0001900000061141327,
        0.0003020000003743917
      ],
      "type": "VEC2"
    },
    {
      "bufferView": 0,
      "byteOffset": 1176600,
      "componentType": 5125,
      "count": 288168,
      "type": "SCALAR"
    },
    {
      "bufferView": 2,
      "byteOffset": 3145536,
      "componentType": 5126,
      "count": 65532,
      "max": [
        20.68035888671875,
        -1.7497450113296509,
        6.944293022155762
      ],
      "min": [
        -21.789501190185547,
        -31.13812828063965,
        -5.355917930603027
      ],
      "type": "VEC3"
    },
    {
      "bufferView": 2,
      "byteOffset": 3931920,
      "componentType": 5126,
      "count": 65532,
      "max": [
        0.9999780058860779,
        0.9974421262741089,
        0.9999992251396179
      ],
      "min": [
        -0.9999805092811584,
        -0.99997478723526,
        -0.9996494650840759
      ],
      "type": "VEC3"
    },
    {
      "bufferView": 1,
      "byteOffset": 1048512,
      "componentType": 5126,
      "count": 65532,
      "max": [
        0.9996060132980347,
        0.999813973903656
      ],
      "min": [
        0.00016799999866634607,
        0.0002589999930933118
      ],
      "type": "VEC2"
    },
    {
      "bufferView": 0,
      "byteOffset": 2329272,
      "componentType": 5125,
      "count": 226008,
      "type": "SCALAR"
    },
    {
      "bufferView": 2,
      "byteOffset": 4718304,
      "componentType": 5126,
      "count": 47495,
      "max": [
        20.840885162353516,
        0.41554099321365356,
        6.859302997589111
      ],
      "min": [
        -24.010337829589844,
        -31.076400756835938,
        -24.409156799316406
      ],
      "type": "VEC3"
    },
    {
      "bufferView": 2,
      "byteOffset": 5288244,
      "componentType": 5126,
      "count": 47495,
      "max": [
        0.9999580979347229,
        0.9994616508483887,
        0.999995231628418
      ],
      "min": [
        -0.9999979734420776,
        -0.9999996423721313,
        -0.9999406337738037
      ],
      "type": "VEC3"
    },
    {
      "bufferView": 1,
      "byteOffset": 1572768,
      "componentType": 5126,
      "count": 47495,
      "max": [
        0.9998310208320618,
        0.9998340010643005
      ],
      "min": [
        0.00015900000289548188,
        0.0005029999883845448
      ],
      "type": "VEC2"
    },
    {
      "bufferView": 0,
      "byteOffset": 3233304,
      "componentType": 5125,
      "count": 107814,
      "type": "SCALAR"
    },
    {
      "bufferView": 2,
      "byteOffset": 5858184,
      "componentType": 5126,
      "count": 65532,
      "max": [
        20.92003631591797,
        0.42085200548171997,
        6.993422031402588
      ],
      "min": [
        -23.946895599365234,
        -31.28482437133789,
        -24.582731246948242
      ],
      "type": "VEC3"
    },
    {
      "bufferView": 2,
      "byteOffset": 6644568,
      "componentType": 5126,
      "count": 65532,
      "max": [
        0.9992852210998535,
        0.9994131326675415,
        0.9999741315841675
      ],
      "min": [
        -0.9999943375587463,
        -0.9999986290931702,
        -0.9996187686920166
      ],
      "type": "VEC3"
    },
    {
      "bufferView": 1,
      "byteOffset": 1952728,
      "componentType": 5126,
      "count": 65532,
      "max": [
        1.9998029470443726,
        0.9998419880867004
      ],
      "min": [
        1.0001720190048218,
        0.0002469999890308827
      ],
      "type": "VEC2"
    },
    {
      "bufferView": 0,
      "byteOffset": 3664560,
      "componentType": 5125,
      "count": 246438,
      "type": "SCALAR"
    },
    {
      "bufferView": 2,
      "byteOffset": 7430952,
      "componentType": 5126,
      "count": 65533,
      "max": [
        20.660629272460938,
        -1.7329460382461548,
        6.984154224395752
      ],
      "min": [
        -21.595504760742188,
        -31.272111892700195,
        -4.167791843414307
      ],
      "type": "VEC3"
    },
    {
      "bufferView": 2,
      "byteOffset": 8217348,
      "componentType": 5126,
      "count": 65533,
      "max": [
        0.9999780058860779,
        0.9994131326675415,
        0.9999863505363464
      ],
      "min": [
        -0.9999447464942932,
        -0.9999911189079285,
        -0.9996494650840759
      ],
      "type": "VEC3"
    },
    {
      "bufferView": 1,
      "byteOffset": 2476984,
      "componentType": 5126,
      "count": 65533,
      "max": [
        1.9998359680175781,
        0.9998419880867004
      ],
      "min": [
        1.000161051750183,
        0.0002699999895412475
      ],
      "type": "VEC2"
    },
    {
      "bufferView": 0,
      "byteOffset": 4650312,
      "componentType": 5125,
      "count": 196497,
      "type": "SCALAR"
    },
    {
      "bufferView": 2,
      "byteOffset": 9003744,
      "componentType": 5126,
      "count": 65534,
      "max": [
        20.86995506286621,
        0.41554099321365356,
        6.930747032165527
      ],
      "min": [
        -24.253082275390625,
        -30.655590057373047,
        -24.287221908569336
      ],
      "type": "VEC3"
    },
    {
      "bufferView": 2,
      "byteOffset": 9790152,
      "componentType": 5126,
      "count": 65534,
      "max": [
        0.999337375164032,
        0.9994616508483887,
        0.9999945163726807
      ],
      "min": [
        -0.9999943375587463,
        -0.9999996423721313,
        -0.9999154806137085
      ],
      "type": "VEC3"
    },
    {
      "bufferView": 1,
      "byteOffset": 3001248,
      "componentType": 5126,
      "count": 65534,
      "max": [
        1.9998250007629395,
        0.9998440146446228
      ],
      "min": [
        1.0001569986343384,
        0.00026599998818710446
      ],
      "type": "VEC2"
    },
    {
      "bufferView": 0,
      "byteOffset": 5436300,
      "componentType": 5125,
      "count": 161106,
      "type": "SCALAR"
    },
    {
      "bufferView": 2,
      "byteOffset": 10576560,
      "componentType": 5126,
      "count": 6819,
      "max": [
        20.55144691467285,
        -1.7329460382461548,
        6.9883952140808105
      ],
      "min": [
        -21.700319290161133,
        -30.869657516479492,
        -3.753851890563965
      ],
      "type": "VEC3"
    },
    {
      "bufferView": 2,
      "byteOffset": 10658388,
      "componentType": 5126,
      "count": 6819,
      "max": [
        0.9996838569641113,
        0.9947091341018677,
        0.9999168515205383
      ],
      "min": [
        -0.999950110912323,
        -0.9999292492866516,
        -0.997269332408905
      ],
      "type": "VEC3"
    },
    {
      "bufferView": 1,
      "byteOffset": 3525520,
      "componentType": 5126,
      "count": 6819,
      "max": [
        1.9995789527893066,
        0.9998279809951782
      ],
      "min": [
        1.000169038772583,
        0.001154000055976212
      ],
      "type": "VEC2"
    },
    {
      "bufferView": 0,
      "byteOffset": 6080724,
      "componentType": 5125,
      "count": 9846,
      "type": "SCALAR"
    },
    {
      "bufferView": 2,
      "byteOffset": 10740216,
      "componentType": 5126,
      "count": 65532,
      "max": [
        20.690200805664063,
        0.2389110028743744,
        6.706946849822998
      ],
      "min": [
        -23.617361068725586,
        -31.339786529541016,
        -23.604976654052734
      ],
      "type": "VEC3"
    },
    {
      "bufferView": 2,
      "byteOffset": 11526600,
      "componentType": 5126,
      "count": 65532,
      "max": [
        0.9999954700469971,
        0.9983587861061096,
        0.999996542930603
      ],
      "min": [
        -0.9999984502792358,
        -0.9999750256538391,
        -1.0
      ],
      "type": "VEC3"
    },
    {
      "bufferView": 1,
      "byteOffset": 3580072,
      "componentType": 5126,
      "count": 65532,
      "max": [
        2.999708890914917,
        0.993943989276886
      ],
      "min": [
        2.0001769065856934,
        0.0003319999959785491
      ],
      "type": "VEC2"
    },
    {
      "bufferView": 0,
      "byteOffset": 6120108,
      "componentType": 5125,
      "count": 295986,
      "type": "SCALAR"
    },
    {
      "bufferView": 2,
      "byteOffset": 12312984,
      "componentType": 5126,
      "count": 65533,
      "max": [
        20.660629272460938,
        -1.743988037109375,
        6.993422031402588
      ],
      "min": [
        -22.22765350341797,
        -31.28482437133789,
        -7.667459011077881
      ],
      "type": "VEC3"
    },
    {
      "bufferView": 2,
      "byteOffset": 13099380,
      "componentType": 5126,
      "count": 65533,
      "max": [
        0.9999915361404419,
        0.9994131326675415,
        0.9999946355819702
      ],
      "min": [
        -0.9999951124191284,
        -0.9999997615814209,
        -0.9996494650840759
      ],
      "type": "VEC3"
    },
    {
      "bufferView": 1,
      "byteOffset": 4104328,
      "componentType": 5126,
      "count": 65533,
      "max": [
        2.999717950820923,
        0.9954839944839478
      ],
      "min": [
        2.0001659393310547,
        0.0010979999788105488
      ],
      "type": "VEC2"
    },
    {
      "bufferView": 0,
      "byteOffset": 7304052,
      "componentType": 5125,
      "count": 261219,
      "type": "SCALAR"
    },
    {
      "bufferView": 2,
      "byteOffset": 13885776,
      "componentType": 5126,
      "count": 51192,
      "max": [
        20.825345993041992,
        0.36972999572753906,
        6.892941951751709
      ],
      "min": [
        -23.835142135620117,
        -30.746747970581055,
        -24.561115264892578
      ],
      "type": "VEC3"
    },
    {
      "bufferView": 2,
      "byteOffset": 14500080,
      "componentType": 5126,
      "count": 51192,
      "max": [
        0.99997878074646,
        0.9994616508483887,
        0.9999903440475464
      ],
      "min": [
        -0.9999908804893494,
        -0.9999992251396179,
        -0.9999406337738037
      ],
      "type": "VEC3"
    },
    {
      "bufferView": 1,
      "byteOffset": 4628592,
      "componentType": 5126,
      "count": 51192,
      "max": [
        2.999722957611084,
        0.9997810125350952
      ],
      "min": [
        2.000159978866577,
        0.0002629999944474548
      ],
      "type": "VEC2"
    },
    {
      "bufferView": 0,
      "byteOffset": 8348928,
      "componentType": 5125,
      "count": 127860,
      "type": "SCALAR"
    },
    {
      "bufferView": 2,
      "byteOffset": 15114384,
      "componentType": 5126,
      "count": 65532,
      "max": [
        20.606029510498047,
        0.07877100259065628,
        6.880727767944336
      ],
      "min": [
        -23.908935546875,
        -30.657777786254883,
        -24.04297637939453
      ],
      "type": "VEC3"
    },
    {
      "bufferView": 2,
      "byteOffset": 15900768,
      "componentType": 5126,
      "count": 65532,
      "max": [
        0.9993898868560791,
        0.9980464577674866,
        0.9999956488609314
      ],
      "min": [
        -0.9999935030937195,
        -0.9999979734420776,
        -0.9999467730522156
      ],
      "type": "VEC3"
    },
    {
      "bufferView": 1,
      "byteOffset": 5038128,
      "componentType": 5126,
      "count": 65532,
      "max": [
        3.900507926940918,
        0.9997940063476563
      ],
      "min": [
        3.0002310276031494,
        0.06793499737977982
      ],
      "type": "VEC2"
    },
    {
      "bufferView": 0,
      "byteOffset": 8860368,
      "componentType": 5125,
      "count": 311256,
      "type": "SCALAR"
    },
    {
      "bufferView": 2,
      "byteOffset": 16687152,
      "componentType": 5126,
      "count": 14737,
      "max": [
        20.150524139404297,
        0.14242799580097198,
        6.626622200012207
      ],
      "min": [
        -23.753644943237305,
        -30.547578811645508,
        -24.034835815429688
      ],
      "type": "VEC3"
    },
    {
      "bufferView": 2,
      "byteOffset": 16863996,
      "componentType": 5126,
      "count": 14737,
      "max": [
        0.998636782169342,
        0.9967020153999329,
        0.9997581243515015
      ],
      "min": [
        -0.9999933838844299,
        -0.9999942183494568,
        -0.9999154806137085
      ],
      "type": "VEC3"
    },
    {
      "bufferView": 1,
      "byteOffset": 5562384,
      "componentType": 5126,
      "count": 14737,
      "max": [
        3.92290997505188,
        0.9998210072517395
      ],
      "min": [
        3.0002241134643555,
        0.06853300333023071
      ],
      "type": "VEC2"
    },
    {
      "bufferView": 0,
      "byteOffset": 10105392,
      "componentType": 5125,
      "count": 41862,
      "type": "SCALAR"
    }
  ],
  "asset": {
    "extras": {
      "author": "Archaeological Survey of Ireland (https://sketchfab.com/caimin)",
      "license": "CC-BY-4.0 (http://creativecommons.org/licenses/by/4.0/)",
      "source": "https://sketchfab.com/3d-models/window-sill-cragg-graveyard-339a3132caa149fd9042b18d5a9db6a0",
      "title": "Window Sill Cragg Graveyard"
    },
    "generator": "Sketchfab-16.65.0",
    "version": "2.0"
  },
  "bufferViews": [
    {
      "buffer": 0,
      "byteLength": 10272840,
      "name": "floatBufferViews",
      "target": 34963
    },
    {
      "buffer": 0,
      "byteLength": 5680280,
      "byteOffset": 10272840,
      "byteStride": 8,
      "name": "floatBufferViews",
      "target": 34962
    },
    {
      "buffer": 0,
      "byteLength": 17040840,
      "byteOffset": 15953120,
      "byteStride": 12,
      "name": "floatBufferViews",
      "target": 34962
    }
  ],
  "buffers": [
    {
      "byteLength": 32993960,
      "uri": "scene.bin"
    }
  ],
  "images": [
    {
      "uri": "textures/Textured_mesh_1_tex0_baseColor.jpeg"
    },
    {
      "uri": "textures/Textured_mesh_1_tex1_baseColor.jpeg"
    },
    {
      "uri": "textures/Textured_mesh_1_tex2_baseColor.jpeg"
    },
    {
      "uri": "textures/Textured_mesh_1_tex3_baseColor.jpeg"
    }
  ],
  "materials": [
    {
      "doubleSided": true,
      "name": "Textured_mesh_1_tex0",
      "pbrMetallicRoughness": {
        "baseColorTexture": {
          "index": 0
        },
        "metallicFactor": 0.0
      }
    },
    {
      "doubleSided": true,
      "name": "Textured_mesh_1_tex1",
      "pbrMetallicRoughness": {
        "baseColorTexture": {
          "index": 1
        },
        "metallicFactor": 0.0
      }
    },
    {
      "doubleSided": true,
      "name": "Textured_mesh_1_tex2",
      "pbrMetallicRoughness": {
        "baseColorTexture": {
          "index": 2
        },
        "metallicFactor": 0.0
      }
    },
    {
      "doubleSided": true,
      "name": "Textured_mesh_1_tex3",
      "pbrMetallicRoughness": {
        "baseColorTexture": {
          "index": 3
        },
        "metallicFactor": 0.0
      }
    }
  ],
  "meshes": [
    {
      "name": "Object_0",
      "primitives": [
        {
          "attributes": {
            "NORMAL": 1,
            "POSITION": 0,
            "TEXCOORD_0": 2
          },
          "indices": 3,
          "material": 0,
          "mode": 4
        }
      ]
    },
    {
      "name": "Object_1",
      "primitives": [
        {
          "attributes": {
            "NORMAL": 5,
            "POSITION": 4,
            "TEXCOORD_0": 6
          },
          "indices": 7,
          "material": 0,
          "mode": 4
        }
      ]
    },
    {
      "name": "Object_2",
      "primitives": [
        {
          "attributes": {
            "NORMAL": 9,
            "POSITION": 8,
            "TEXCOORD_0": 10
          },
          "indices": 11,
          "material": 0,
          "mode": 4
        }
      ]
    },
    {
      "name": "Object_3",
      "primitives": [
        {
          "attributes": {
            "NORMAL": 13,
            "POSITION": 12,
            "TEXCOORD_0": 14
          },
          "indices": 15,
          "material": 0,
          "mode": 4
        }
      ]
    },
    {
      "name": "Object_4",
      "primitives": [
        {
          "attributes": {
            "NORMAL": 17,
            "POSITION": 16,
            "TEXCOORD_0": 18
          },
          "indices": 19,
          "material": 1,
          "mode": 4
        }
      ]
    },
    {
      "name": "Object_5",
      "primitives": [
        {
          "attributes": {
            "NORMAL": 21,
            "POSITION": 20,
            "TEXCOORD_0": 22
          },
          "indices": 23,
          "material": 1,
          "mode": 4
        }
      ]
    },
    {
      "name": "Object_6",
      "primitives": [
        {
          "attributes": {
            "NORMAL": 25,
            "POSITION": 24,
            "TEXCOORD_0": 26
          },
          "indices": 27,
          "material": 1,
          "mode": 4
        }
      ]
    },
    {
      "name": "Object_7",
      "primitives": [
        {
          "attributes": {
            "NORMAL": 29,
            "POSITION": 28,
            "TEXCOORD_0": 30
          },
          "indices": 31,
          "material": 1,
          "mode": 4
        }
      ]
    },
    {
      "name": "Object_8",
      "primitives": [
        {
          "attributes": {
            "NORMAL": 33,
            "POSITION": 32,
            "TEXCOORD_0": 34
          },
          "indices": 35,
          "material": 2,
          "mode": 4
        }
      ]
    },
    {
      "name": "Object_9",
      "primitives": [
        {
          "attributes": {
            "NORMAL": 37,
            "POSITION": 36,
            "TEXCOORD_0": 38
          },
          "indices": 39,
          "material": 2,
          "mode": 4
        }
      ]
    },
    {
      "name": "Object_10",
      "primitives": [
        {
          "attributes": {
            "NORMAL": 41,
            "POSITION": 40,
            "TEXCOORD_0": 42
          },
          "indices": 43,
          "material": 2,
          "mode": 4
        }
      ]
    },
    {
      "name": "Object_11",
      "primitives": [
        {
          "attributes": {
            "NORMAL": 45,
            "POSITION": 44,
            "TEXCOORD_0": 46
          },
          "indices": 47,
          "material": 3,
          "mode": 4
        }
      ]
    },
    {
      "name": "Object_12",
      "primitives": [
        {
          "attributes": {
            "NORMAL": 49,
            "POSITION": 48,
            "TEXCOORD_0": 50
          },
          "indices": 51,
          "material": 3,
          "mode": 4
        }
      ]
    }
  ],
  "nodes": [
    {
      "children": [
        1
      ],
      "matrix": [
        -0.9795475602149963,
        -0.028296407312154815,
        0.19921332597732544,
        0.0,
        0.08100469410419464,
        -0.9617440104484559,
        0.2616996169090269,
        0.0,
        0.18418706953525543,
        0.2724844217300413,
        0.9443660974502565,
        0.0,
        0.0,
        0.0,
        0.0,
        1.0
      ],
      "name": "Sketchfab_model"
    },
    {
      "children": [
        2,
        3,
        4,
        5,
        6,
        7,
        8,
        9,
        10,
        11,
        12,
        13,
        14
      ],
      "name": "Textured_mesh_1.obj.cleaner.materialmerger.gles"
    },
    {
      "mesh": 0,
      "name": "Object_2"
    },
    {
      "mesh": 1,
      "name": "Object_3"
    },
    {
      "mesh": 2,
      "name": "Object_4"
    },
    {
      "mesh": 3,
      "name": "Object_5"
    },
    {
      "mesh": 4,
      "name": "Object_6"
    },
    {
      "mesh": 5,
      "name": "Object_7"
    },
    {
      "mesh": 6,
      "name": "Object_8"
    },
    {
      "mesh": 7,
      "name": "Object_9"
    },
    {
      "mesh": 8,
      "name": "Object_10"
    },
    {
      "mesh": 9,
      "name": "Object_11"
    },
    {
      "mesh": 10,
      "name": "Object_12"
    },
    {
      "mesh": 11,
      "name": "Object_13"
    },
    {
      "mesh": 12,
      "name": "Object_14"
    }
  ],
  "samplers": [
    {
      "magFilter": 9729,
      "minFilter": 9987,
      "wrapS": 10497,
      "wrapT": 10497
    }
  ],
  "scene": 0,
  "scenes": [
    {
      "name": "Sketchfab_Scene",
      "nodes": [
        0
      ]
    }
  ],
  "textures": [
    {
      "sampler": 0,
      "source": 0
    },
    {
      "sampler": 0,
      "source": 1
    },
    {
      "sampler": 0,
      "source": 2
    },
    {
      "sampler": 0,
      "source": 3
    }
  ]
}
